<svg width="80" height="20" viewBox="0 0 80 20" fill="none" xmlns="http://www.w3.org/2000/svg">
<g clip-path="url(#clip0)">
<path d="M36.0488 9.68217C38.5399 8.85313 38.9915 6.76252 38.9865 5.05839C38.9815 2.45313 37.1442 0.20332 31.7064 0.20332L21.5547 0.201317V19.7598H31.6783C37.1502 19.7598 39.1627 16.9513 39.1627 14.1377C39.1627 10.7305 36.0488 9.68217 36.0488 9.68217ZM26.3727 4.45664H33.2073L33.2313 4.46164C34.0022 4.59781 34.5639 5.25363 34.5639 6.02259C34.5639 6.81058 33.9622 7.55251 33.1672 7.66064L26.3757 7.67166L26.3727 4.45664ZM32.8778 15.2011H26.3727V11.928H33.037L33.0521 11.93C33.8811 12.0241 34.5099 12.714 34.5099 13.532C34.5099 14.4261 33.766 15.1891 32.8778 15.2011Z" fill="#003F2D"/>
<path d="M61.8926 0.205288H79.046L79.036 4.47262H66.6595L66.6716 7.62556H77.8295V11.9159H66.6716V15.3272H79.05L79.047 19.8008H61.8926" fill="#003F2D"/>
<path d="M51.914 0.229464H41.541V19.7949H46.304V11.878L51.5505 11.873C53.0524 11.896 54.2209 13.1256 54.2209 14.6435V19.7769L58.8827 19.7749L58.8747 13.462C58.8747 10.5363 56.0482 9.67127 56.0482 9.67127C56.0482 9.67127 58.9378 8.80819 58.9378 5.34986C58.9378 1.11757 55.3022 0.229464 51.914 0.229464ZM54.5142 6.29905C54.4281 6.94286 53.7853 7.64073 52.9823 7.64073L46.2869 7.64273V4.51082H52.9843C53.7853 4.51082 54.4121 5.09855 54.5142 5.87252" fill="#003F2D"/>
<path d="M18.466 15.0676C18.3989 15.0686 11.9549 15.1927 9.73008 14.9764C6.14961 14.626 4.88002 11.9717 4.88002 9.80698C4.88002 7.1046 6.72132 5.11812 9.57289 4.74565C10.9306 4.56743 18.3479 4.65154 18.427 4.65154L18.5821 4.65454L18.5982 0.204977H18.441L10.0445 0.220997C9.10931 0.278069 7.55937 0.372185 5.97139 1.021C4.44848 1.71987 3.12082 2.79321 2.13058 4.12788C0.869007 5.826 0.201172 7.84353 0.201172 9.95817C0.201172 10.625 0.254238 11.2848 0.361372 11.9186C0.965127 14.8843 2.91056 17.3404 5.69904 18.66C6.64022 19.0746 8.09304 19.5702 11.0207 19.7354L12.5987 19.7684L18.451 19.7734H18.6062L18.6222 15.0656" fill="#003F2D"/>
</g>
<defs>
<clipPath id="clip0">
<rect width="79.2491" height="20" fill="white"/>
</clipPath>
</defs>
</svg>
